<svg width="32" height="32" viewBox="0 0 32 32" fill="none" xmlns="http://www.w3.org/2000/svg">
<path d="M1 19.8C1.55228 19.8 2 20.2478 2 20.8V25.8C2 26.9046 2.89543 27.8 4 27.8H28C29.1046 27.8 30 26.9046 30 25.8V20.8C30 20.2478 30.4477 19.8 31 19.8C31.5523 19.8 32 20.2478 32 20.8V25.8C32 28.0092 30.2091 29.8 28 29.8H4C1.79086 29.8 0 28.0092 0 25.8V20.8C0 20.2478 0.447715 19.8 1 19.8Z" fill="#959595"/>
<path d="M15.2929 2.29289C15.6834 1.90237 16.3166 1.90237 16.7071 2.29289L22.7071 8.29289C23.0976 8.68342 23.0976 9.31658 22.7071 9.70711C22.3166 10.0976 21.6834 10.0976 21.2929 9.70711L17 5.41421V23C17 23.5523 16.5523 24 16 24C15.4477 24 15 23.5523 15 23V5.41421L10.7071 9.70711C10.3166 10.0976 9.68342 10.0976 9.29289 9.70711C8.90237 9.31658 8.90237 8.68342 9.29289 8.29289L15.2929 2.29289Z" fill="#959595"/>
</svg>
