<svg width="28" height="28" viewBox="0 0 28 28" fill="none" xmlns="http://www.w3.org/2000/svg">
<g clip-path="url(#clip0_550_7082)">
<path d="M9.33333 12.8337H14.5833C15.3569 12.8337 16.0987 12.5264 16.6457 11.9794C17.1927 11.4324 17.5 10.6905 17.5 9.91699C17.5 9.14344 17.1927 8.40158 16.6457 7.8546C16.0987 7.30762 15.3569 7.00033 14.5833 7.00033H9.33333V12.8337ZM21 18.0837C21 18.7731 20.8642 19.4558 20.6004 20.0927C20.3365 20.7297 19.9498 21.3085 19.4623 21.796C18.9748 22.2835 18.396 22.6702 17.7591 22.934C17.1221 23.1979 16.4394 23.3337 15.75 23.3337H7V4.66699H14.5833C15.6111 4.66704 16.6163 4.96875 17.4742 5.53473C18.3321 6.10071 19.005 6.90606 19.4095 7.85091C19.814 8.79576 19.9322 9.83854 19.7495 10.85C19.5669 11.8614 19.0914 12.797 18.382 13.5407C19.1784 14.0018 19.8396 14.6644 20.2991 15.4617C20.7586 16.2591 21.0003 17.1633 21 18.0837ZM9.33333 15.167V21.0003H15.75C16.5235 21.0003 17.2654 20.693 17.8124 20.1461C18.3594 19.5991 18.6667 18.8572 18.6667 18.0837C18.6667 17.3101 18.3594 16.5682 17.8124 16.0213C17.2654 15.4743 16.5235 15.167 15.75 15.167H9.33333Z" fill="#292929"/>
</g>
<defs>
<clipPath id="clip0_550_7082">
<rect width="28" height="28" fill="white"/>
</clipPath>
</defs>
</svg>
