<svg width="217" height="74" viewBox="0 0 217 74" fill="none" xmlns="http://www.w3.org/2000/svg">
<path d="M81.9967 28.6V44H85.1427V33.616L89.2347 42.438H91.5007L95.5927 33.616V44H98.7167V28.6H94.8447L90.3787 38.016L85.8907 28.6H81.9967ZM102.834 28.6V44H114.802V41.118H106.31V37.708H113.724V34.826H106.31V31.482H114.56V28.6H102.834ZM124.77 28.6H118.236V44H124.638C129.5 44 132.866 40.832 132.866 36.3C132.866 31.746 129.544 28.6 124.77 28.6ZM124.858 41.074H121.712V31.526H124.704C127.344 31.526 129.324 33.484 129.324 36.322C129.324 39.138 127.432 41.074 124.858 41.074Z" fill="#048741"/>
<path d="M147.005 33.506L149.029 31.042C147.511 29.48 145.179 28.49 142.957 28.49C138.293 28.49 134.751 31.834 134.751 36.278C134.751 40.744 138.227 44.154 142.825 44.154C145.069 44.154 147.423 43.076 149.051 41.404L147.005 39.182C145.905 40.282 144.387 40.986 143.001 40.986C140.361 40.986 138.315 38.918 138.315 36.234C138.315 33.55 140.361 31.504 143.001 31.504C144.431 31.504 145.949 32.296 147.005 33.506ZM151.833 28.6V44H155.309V37.928H162.283V44H165.759V28.6H162.283V35.024H155.309V28.6H151.833ZM169.856 28.6V44H181.824V41.118H173.332V37.708H180.746V34.826H173.332V31.482H181.582V28.6H169.856ZM196.412 33.506L198.436 31.042C196.918 29.48 194.586 28.49 192.364 28.49C187.7 28.49 184.158 31.834 184.158 36.278C184.158 40.744 187.634 44.154 192.232 44.154C194.476 44.154 196.83 43.076 198.458 41.404L196.412 39.182C195.312 40.282 193.794 40.986 192.408 40.986C189.768 40.986 187.722 38.918 187.722 36.234C187.722 33.55 189.768 31.504 192.408 31.504C193.838 31.504 195.356 32.296 196.412 33.506ZM215.54 44L209.358 35.024L215.144 28.6H211.118L204.716 35.596V28.6H201.24V44H204.716V40.194L206.938 37.73L211.36 44H215.54Z" fill="#34453C"/>
<path d="M45.1169 70.7746C44.1901 70.7746 43.4573 70.0418 43.4573 69.115C43.4573 68.1881 44.1901 67.4554 45.1169 67.4554C46.0438 67.4554 46.7732 68.1881 46.7732 69.115C46.7732 70.0418 46.0438 70.7746 45.1169 70.7746ZM61.114 15.9109L38.6793 1.46302C35.6545 -0.487674 31.7532 -0.487674 28.7284 1.46302L6.2904 15.9109C2.34217 18.4505 0 22.7467 0 27.431V55.8382C0 63.8417 6.48782 70.3831 14.5348 70.3831H25.0713C30.5319 70.3831 34.972 65.943 34.972 60.4757V56.1293C43.116 55.4467 51.8456 48.0287 54.0406 32.3596C54.335 30.1145 53.6525 27.8225 52.1869 26.1127C50.7247 24.4063 48.58 23.4761 46.3348 23.4761H44.3842V22.8905C44.3842 21.6224 43.3603 20.5986 42.0922 20.5986C40.8241 20.5986 39.8002 21.6224 39.8002 22.8905V26.5042C39.8002 27.7723 40.8241 28.7962 42.0922 28.7962C43.3603 28.7962 44.3842 27.7723 44.3842 26.5042V25.9186H46.3348C47.8472 25.9186 49.3094 26.6012 50.3333 27.7221C51.3605 28.8965 51.7988 30.4558 51.6014 32.0183C49.5537 47.0049 41.1653 53.7403 33.7507 53.7403C26.3394 53.7403 17.9477 47.0049 15.9 32.0183C15.7059 30.4558 16.1443 28.8965 17.1681 27.7221C18.192 26.551 19.6575 25.9186 21.1665 25.9186H23.1206V26.5042C23.1206 27.7723 24.1444 28.7962 25.4126 28.7962C26.6807 28.7962 27.7045 27.7723 27.7045 26.5042V22.8905C27.7045 21.6224 26.6807 20.5986 25.4126 20.5986C24.1444 20.5986 23.1206 21.6224 23.1206 22.8905V23.4761H21.1665C18.9247 23.4761 16.78 24.4531 15.3145 26.1127C13.8523 27.8225 13.1697 30.0676 13.4608 32.3596C15.6089 48.0287 24.3887 55.4467 32.5328 56.1293V60.4255C32.5328 64.5243 29.2169 67.8435 25.1181 67.8435H14.4847C7.85297 67.8435 2.4392 62.4264 2.4392 55.788V27.3808C2.4392 23.5263 4.33971 20.013 7.60871 17.9619L30.0434 3.51409C32.2885 2.09875 35.1158 2.09875 37.361 3.51409L59.7956 17.9619C63.0178 20.013 64.9685 23.5765 64.9685 27.3808V55.788C64.9685 62.4264 59.5547 67.8435 52.9197 67.8435H49.0652C48.5298 66.1839 46.9706 64.966 45.1638 64.966C42.922 64.966 41.0683 66.8196 41.0683 69.0648C41.0683 71.3099 42.922 73.1636 45.1638 73.1636C47.0174 73.1636 48.5298 71.9457 49.0652 70.2861H52.9197C60.9199 70.2861 67.4545 63.7949 67.4545 55.7412V27.3808C67.4044 22.6965 65.0655 18.4003 61.114 15.9109Z" fill="#048741"/>
</svg>
