<svg width="20" height="20" viewBox="0 0 20 20" fill="none" xmlns="http://www.w3.org/2000/svg">
<g clip-path="url(#clip0_482_6464)">
<path d="M14.6119 13.8475L17.5254 16.8428C17.8357 17.1618 17.8357 17.6699 17.5254 17.989C17.2027 18.3209 16.6695 18.3209 16.3468 17.9889L13.4661 15.0259C12.1749 16.0902 10.569 16.6691 8.9142 16.6667C4.88827 16.6667 1.62085 13.3067 1.62085 9.16669C1.62085 5.02669 4.88827 1.66669 8.9142 1.66669C12.9401 1.66669 16.2076 5.02669 16.2076 9.16669C16.2099 10.8684 15.647 12.5198 14.6119 13.8475ZM12.9863 13.2292C14.0148 12.1416 14.5891 10.6837 14.5868 9.16669C14.5868 5.94335 12.0479 3.33335 8.9142 3.33335C5.77968 3.33335 3.2416 5.94335 3.2416 9.16669C3.2416 12.3892 5.77968 15 8.9142 15C10.3894 15.0024 11.8071 14.4118 12.8648 13.3542L12.9863 13.2292Z" fill="#959595"/>
</g>
<defs>
<clipPath id="clip0_482_6464">
<rect width="19.4489" height="20" fill="white"/>
</clipPath>
</defs>
</svg>
