<svg width="28" height="28" viewBox="0 0 28 28" fill="none" xmlns="http://www.w3.org/2000/svg">
<g clip-path="url(#clip0_550_7088)">
<path d="M9.33366 3.5V14C9.33366 15.2377 9.82532 16.4247 10.7005 17.2998C11.5757 18.175 12.7626 18.6667 14.0003 18.6667C15.238 18.6667 16.425 18.175 17.3002 17.2998C18.1753 16.4247 18.667 15.2377 18.667 14V3.5H21.0003V14C21.0003 15.8565 20.2628 17.637 18.9501 18.9497C17.6373 20.2625 15.8568 21 14.0003 21C12.1438 21 10.3633 20.2625 9.05058 18.9497C7.73782 17.637 7.00033 15.8565 7.00033 14V3.5H9.33366ZM4.66699 23.3333H23.3337V25.6667H4.66699V23.3333Z" fill="#292929"/>
</g>
<defs>
<clipPath id="clip0_550_7088">
<rect width="28" height="28" fill="white"/>
</clipPath>
</defs>
</svg>
