<svg width="16" height="16" viewBox="0 0 16 16" fill="none" xmlns="http://www.w3.org/2000/svg">
<path d="M11.6944 5.57572L9.27048 7.99992L11.6944 10.424C12.055 10.7847 12.055 11.369 11.6944 11.7297C11.5143 11.9098 11.2781 12 11.042 12C10.8056 12 10.5693 11.91 10.3893 11.7297L7.96486 9.30529L5.54056 11.7296C5.36043 11.9098 5.12422 11.9999 4.88794 11.9999C4.65173 11.9999 4.41568 11.9099 4.23539 11.7296C3.87484 11.3691 3.87484 10.7848 4.23539 10.424L6.65928 7.9999L4.23526 5.57572C3.87471 5.21516 3.87471 4.63076 4.23526 4.27021C4.59574 3.90993 5.1798 3.90993 5.54042 4.27021L7.96483 6.69442L10.3891 4.27021C10.7497 3.90993 11.3339 3.90993 11.6943 4.27021C12.055 4.63076 12.055 5.21516 11.6944 5.57572Z" fill="#F91515"/>
</svg>
