<svg width="54" height="54" viewBox="0 0 54 54" fill="none" xmlns="http://www.w3.org/2000/svg">
<g clip-path="url(#clip0_109_6583)">
<path d="M53.0807 25.4732C49.8448 25.36 46.6786 25.8358 43.7038 26.8521C43.6446 23.6749 43.0063 20.5601 41.7998 17.5741C41.6026 17.0866 41.0483 16.851 40.5598 17.0479C38.6752 17.8092 36.9104 18.7709 35.2787 19.9207C33.3199 16.0574 30.766 12.5368 27.6723 9.44443C27.3002 9.07255 26.6973 9.07255 26.3256 9.44452C23.2306 12.5395 20.6769 16.0595 18.7196 19.9193C17.0888 18.7701 15.3247 17.8089 13.4407 17.0479C12.9527 16.8509 12.398 17.0865 12.2008 17.5741C10.9922 20.565 10.3536 23.6849 10.2961 26.8675C7.36188 25.8592 4.19983 25.3589 0.919224 25.4732C0.393462 25.4917 -0.0177604 25.9327 0.000591093 26.4583C0.492814 40.5527 12.1145 51.6829 26.1093 51.6829C26.4046 51.6829 26.7026 51.6775 27.0001 51.6677C27.2983 51.6776 27.5948 51.6829 27.8909 51.6829C41.8845 51.6829 53.5074 40.5519 53.9995 26.4583C54.0176 25.9327 53.6064 25.4916 53.0807 25.4732ZM13.6205 19.1956C16.3043 20.4036 18.7094 22.0627 20.7809 24.1366C23.0048 26.3592 24.7489 28.9568 25.9725 31.8603C25.1563 33.9687 24.6208 36.1481 24.3712 38.3712C21.5635 33.6038 17.2903 29.8153 12.1981 27.6051C12.1668 24.7336 12.6442 21.9118 13.6205 19.1956ZM1.95745 27.3621C8.06969 27.3883 13.8614 29.6794 18.3572 33.872C22.8533 38.0647 25.5431 43.6817 25.9952 49.7777C13.3952 49.7185 2.89539 39.9274 1.95745 27.3621ZM22.1279 22.7897C21.5307 22.1918 20.9071 21.6266 20.2596 21.0934C22.0042 17.5754 24.2667 14.3483 26.9992 11.4813C29.7302 14.3464 31.9926 17.5736 33.7385 21.0949C33.0917 21.6276 32.4686 22.192 31.8718 22.7893C29.8855 24.7745 28.2532 27.0388 26.9998 29.5391C25.7476 27.0401 24.1154 24.7758 22.1279 22.7897ZM26.9961 44.5299C26.7485 43.6479 26.4561 42.7851 26.1211 41.9441C26.1149 41.7407 26.1118 41.5256 26.1118 41.2898C26.1118 38.1683 26.7077 35.1118 27.8827 32.205C29.1136 29.1594 30.9087 26.4447 33.2188 24.1361C35.2913 22.0623 37.6967 20.4035 40.3802 19.1956C41.3543 21.9058 41.8314 24.7212 41.8025 27.5862C39.0897 28.7598 36.5695 30.4031 34.3438 32.4787C30.7809 35.801 28.2712 39.9534 26.9961 44.5299ZM28.0048 49.7777C28.457 43.6817 31.1465 38.0647 35.6427 33.872C40.1389 29.679 45.9297 27.3878 52.0426 27.362C51.1044 39.9281 40.6059 49.7197 28.0048 49.7777Z" fill="#E4772F" stroke="white" stroke-width="0.3"/>
<path d="M1.48374 22.6896C2.00978 22.6896 2.43623 22.2632 2.43623 21.7371C2.43623 21.2111 2.00978 20.7847 1.48374 20.7847C0.957691 20.7847 0.53125 21.2111 0.53125 21.7371C0.53125 22.2632 0.957691 22.6896 1.48374 22.6896Z" fill="#E4772F" stroke="white" stroke-width="0.3"/>
<path d="M13.0853 12.1144C13.6113 12.1144 14.0378 11.688 14.0378 11.1619C14.0378 10.6359 13.6113 10.2095 13.0853 10.2095C12.5592 10.2095 12.1328 10.6359 12.1328 11.1619C12.1328 11.688 12.5592 12.1144 13.0853 12.1144Z" fill="#E4772F" stroke="white" stroke-width="0.3"/>
<path d="M26.9993 4.22187C27.5254 4.22187 27.9518 3.79542 27.9518 3.26938C27.9518 2.74333 27.5254 2.31689 26.9993 2.31689C26.4733 2.31689 26.0469 2.74333 26.0469 3.26938C26.0469 3.79542 26.4733 4.22187 26.9993 4.22187Z" fill="#E4772F" stroke="white" stroke-width="0.3"/>
<path d="M40.9173 12.1144C41.4434 12.1144 41.8698 11.688 41.8698 11.1619C41.8698 10.6359 41.4434 10.2095 40.9173 10.2095C40.3913 10.2095 39.9648 10.6359 39.9648 11.1619C39.9648 11.688 40.3913 12.1144 40.9173 12.1144Z" fill="#E4772F" stroke="white" stroke-width="0.3"/>
<path d="M52.513 22.6896C53.0391 22.6896 53.4655 22.2632 53.4655 21.7371C53.4655 21.2111 53.0391 20.7847 52.513 20.7847C51.987 20.7847 51.5605 21.2111 51.5605 21.7371C51.5605 22.2632 51.987 22.6896 52.513 22.6896Z" fill="#E4772F" stroke="white" stroke-width="0.3"/>
</g>
<defs>
<clipPath id="clip0_109_6583">
<rect width="54" height="54" fill="white"/>
</clipPath>
</defs>
</svg>
